<svg width="79" height="96" viewBox="0 0 79 96" fill="none" xmlns="http://www.w3.org/2000/svg">
<path d="M73.6514 24.5715C73.564 23.5359 72.6916 22.7424 71.6521 22.7525H56.4572V16.9943C56.4572 7.60839 48.848 0 39.4629 0C30.077 0 22.4686 7.60839 22.4686 16.9943V22.7525H7.27367C6.23886 22.7564 5.37509 23.5421 5.27434 24.5715L0.0362506 84.7919C-0.201951 87.584 0.741483 90.3487 2.6385 92.4128C4.53474 94.4762 7.20963 95.65 10.0126 95.6477H68.9327C71.7357 95.65 74.4106 94.4762 76.3068 92.4128C78.2038 90.3487 79.148 87.584 78.9098 84.7919L73.6514 24.5715ZM26.4672 16.9943C26.4672 9.81703 32.2856 3.99866 39.4629 3.99866C46.6402 3.99866 52.4585 9.81703 52.4585 16.9943V22.7525H26.4672V16.9943ZM73.3515 89.7098C72.2207 90.9547 70.6142 91.66 68.9327 91.649H9.99229C8.31082 91.6498 6.70667 90.9446 5.56955 89.7059C4.43322 88.4665 3.86856 86.8069 4.01461 85.1317L9.09259 26.7512H22.4686V39.2267C19.2533 40.2162 17.2453 43.4081 17.7459 46.7351C18.2458 50.0614 21.1042 52.5215 24.4679 52.5215C27.8316 52.5215 30.6893 50.0614 31.1899 46.7351C31.6897 43.4081 29.6818 40.2162 26.4672 39.2267V26.7309H52.4585V39.2267C49.2432 40.2162 47.2353 43.4081 47.7359 46.7351C48.2357 50.0614 51.0941 52.5215 54.4579 52.5215C57.8216 52.5215 60.6792 50.0614 61.1798 46.7351C61.6797 43.4081 59.6717 40.2162 56.4572 39.2267V26.7309H69.8129L74.8909 85.1114C75.0549 86.7936 74.4949 88.4657 73.3515 89.7098ZM24.168 42.9458C24.3672 42.9723 24.5687 42.9723 24.7678 42.9458C26.2462 43.1051 27.3427 44.3937 27.2631 45.8784C27.1826 47.3638 25.9549 48.5275 24.4679 48.5275C22.9801 48.5275 21.7524 47.3638 21.6728 45.8784C21.5931 44.3937 22.6888 43.1051 24.168 42.9458ZM54.158 42.9458C54.3571 42.9723 54.5586 42.9723 54.7578 42.9458C56.2362 43.1051 57.3327 44.3937 57.253 45.8784C57.1726 47.3638 55.9449 48.5275 54.4579 48.5275C52.9701 48.5275 51.7424 47.3638 51.6627 45.8784C51.583 44.3937 52.6788 43.1051 54.158 42.9458Z" fill="black"/>
<path d="M29.184 69.832C29.184 67.656 29.6853 65.704 30.688 63.976C31.712 62.248 33.088 60.904 34.816 59.944C36.5653 58.9627 38.4747 58.472 40.544 58.472C42.912 58.472 45.0133 59.0587 46.848 60.232C48.704 61.384 50.048 63.0267 50.88 65.16H46.496C45.92 63.9867 45.12 63.112 44.096 62.536C43.072 61.96 41.888 61.672 40.544 61.672C39.072 61.672 37.76 62.0027 36.608 62.664C35.456 63.3253 34.5493 64.2747 33.888 65.512C33.248 66.7493 32.928 68.1893 32.928 69.832C32.928 71.4747 33.248 72.9147 33.888 74.152C34.5493 75.3893 35.456 76.3493 36.608 77.032C37.76 77.6933 39.072 78.024 40.544 78.024C41.888 78.024 43.072 77.736 44.096 77.16C45.12 76.584 45.92 75.7093 46.496 74.536H50.88C50.048 76.6693 48.704 78.312 46.848 79.464C45.0133 80.616 42.912 81.192 40.544 81.192C38.4533 81.192 36.544 80.712 34.816 79.752C33.088 78.7707 31.712 77.416 30.688 75.688C29.6853 73.96 29.184 72.008 29.184 69.832Z" fill="#29A867"/>
</svg>
