<svg width="41" height="51" viewBox="0 0 41 51" fill="none" xmlns="http://www.w3.org/2000/svg">
<path d="M38.1075 12.5315C38.0629 12.0033 37.618 11.5986 37.0879 11.6038H29.3385V8.6671C29.3385 3.88028 25.4578 0 20.6714 0C15.8845 0 12.0043 3.88028 12.0043 8.6671V11.6038H4.25486C3.72711 11.6058 3.28658 12.0065 3.2352 12.5315L0.563776 43.2439C0.442293 44.6678 0.923445 46.0778 1.89093 47.1306C2.85801 48.1829 4.2222 48.7815 5.65171 48.7803H35.701C37.1305 48.7815 38.4947 48.1829 39.4618 47.1306C40.4292 46.0778 40.9108 44.6678 40.7893 43.2439L38.1075 12.5315ZM14.0436 8.6671C14.0436 5.00669 17.011 2.03932 20.6714 2.03932C24.3318 2.03932 27.2992 5.00669 27.2992 8.6671V11.6038H14.0436V8.6671ZM37.9546 45.752C37.3778 46.3869 36.5585 46.7466 35.701 46.741H5.64136C4.78381 46.7414 3.96569 46.3817 3.38576 45.75C2.80623 45.1179 2.51825 44.2715 2.59274 43.4172L5.18251 13.6431H12.0043V20.0056C10.3644 20.5103 9.34041 22.1382 9.59572 23.8349C9.85064 25.5313 11.3084 26.786 13.0239 26.786C14.7394 26.786 16.1968 25.5313 16.4521 23.8349C16.707 22.1382 15.683 20.5103 14.0436 20.0056V13.6328H27.2992V20.0056C25.6593 20.5103 24.6353 22.1382 24.8906 23.8349C25.1455 25.5313 26.6033 26.786 28.3188 26.786C30.0343 26.786 31.4917 25.5313 31.747 23.8349C32.0019 22.1382 30.9779 20.5103 29.3385 20.0056V13.6328H36.1499L38.7396 43.4068C38.8233 44.2648 38.5377 45.1175 37.9546 45.752ZM12.871 21.9024C12.9725 21.9159 13.0753 21.9159 13.1769 21.9024C13.9309 21.9836 14.4901 22.6408 14.4495 23.398C14.4084 24.1556 13.7823 24.749 13.0239 24.749C12.2652 24.749 11.639 24.1556 11.5984 23.398C11.5578 22.6408 12.1166 21.9836 12.871 21.9024ZM28.1659 21.9024C28.2674 21.9159 28.3702 21.9159 28.4718 21.9024C29.2257 21.9836 29.785 22.6408 29.7443 23.398C29.7033 24.1556 29.0772 24.749 28.3188 24.749C27.56 24.749 26.9339 24.1556 26.8933 23.398C26.8527 22.6408 27.4115 21.9836 28.1659 21.9024Z" fill="black"/>
<path d="M13.666 34.718C13.666 33.494 13.948 32.396 14.512 31.424C15.088 30.452 15.862 29.696 16.834 29.156C17.818 28.604 18.892 28.328 20.056 28.328C21.388 28.328 22.57 28.658 23.602 29.318C24.646 29.966 25.402 30.89 25.87 32.09H23.404C23.08 31.43 22.63 30.938 22.054 30.614C21.478 30.29 20.812 30.128 20.056 30.128C19.228 30.128 18.49 30.314 17.842 30.686C17.194 31.058 16.684 31.592 16.312 32.288C15.952 32.984 15.772 33.794 15.772 34.718C15.772 35.642 15.952 36.452 16.312 37.148C16.684 37.844 17.194 38.384 17.842 38.768C18.49 39.14 19.228 39.326 20.056 39.326C20.812 39.326 21.478 39.164 22.054 38.84C22.63 38.516 23.08 38.024 23.404 37.364H25.87C25.402 38.564 24.646 39.488 23.602 40.136C22.57 40.784 21.388 41.108 20.056 41.108C18.88 41.108 17.806 40.838 16.834 40.298C15.862 39.746 15.088 38.984 14.512 38.012C13.948 37.04 13.666 35.942 13.666 34.718Z" fill="#29A867"/>
</svg>
